# xmcd CD database file
#
# Track frame offsets:
#	150
#	14325
#	25373
#	61546
#	74032
#	86946
#	114461
#	129340
#	144336
#	157875
#	184287
#	199657
#	213182
#	229926
#	259410
#	271001
#	284918
#	298333
#
# Disc length: 4433 seconds
#
# Revision: 0
# Processed by: cddbd v1.5.2PL0 Copyright (c) Steve Scherf et al.
# Submitted via: CDex 1.70beta2
#
DISCID=18114f12
DTITLE=STAN GETZ - LES GRANDS STANDARDS DU SAXOPHONE CD1
DYEAR=2005
DGENRE=Jazz
TTITLE0=AUTOMS LEAVES -STAN  GETZ 1952
TTITLE1=LULLUBY OF BIRDLAND-STAN GETZ 1952
TTITLE2=FASCINATING RYTHM 1953
TTITLE3=STELLA BY STARLIGHT 1952
TTITLE4=HOW DEEP IS THE OCEAN 1952
TTITLE5=SPRING IS HERE 1953
TTITLE6=BODY AND SOUL 1952
TTITLE7='TIS AUTUMN 1952
TTITLE8=TIME ON MY HANDS 1952
TTITLE9=CRAZY RYTHM 1953
TTITLE10=THESE FOOLISH THINGS 1952
TTITLE11=HYMN OF THE ORIENT
TTITLE12=THE NEAREST OF YOU 1953
TTITLE13=LOVE AND THE WEATHER 1953
TTITLE14=FOOLISH RUSH IN 1952
TTITLE15=THE WAY YOU LOOK TONIGHT 1952
TTITLE16=LOVER COME BACK TO ME 1952
TTITLE17=I DIDN'T KNOW WHAT TIME IT WAS 1953
EXTD=YEAR: 2005
EXTT0=
EXTT1=
EXTT2=
EXTT3=
EXTT4=
EXTT5=
EXTT6=
EXTT7=
EXTT8=
EXTT9=
EXTT10=
EXTT11=
EXTT12=
EXTT13=
EXTT14=
EXTT15=
EXTT16=
EXTT17=
PLAYORDER=
